<?xml version="1.0" encoding="UTF-8" standalone="no"?>
<svg
   id="Layer_1"
   data-name="Layer 1"
   viewBox="0 0 0.74999593 0.75"
   width="15.999913"
   height="16"
   version="1.1"
   sodipodi:docname="icon.svg"
   inkscape:version="1.4.2 (ebf0e94, 2025-05-08)"
   xmlns:inkscape="http://www.inkscape.org/namespaces/inkscape"
   xmlns:sodipodi="http://sodipodi.sourceforge.net/DTD/sodipodi-0.dtd"
   xmlns="http://www.w3.org/2000/svg"
   xmlns:svg="http://www.w3.org/2000/svg">
  <defs
     id="defs1" />
  <sodipodi:namedview
     id="namedview1"
     pagecolor="#ffffff"
     bordercolor="#000000"
     borderopacity="0.25"
     inkscape:showpageshadow="2"
     inkscape:pageopacity="0.0"
     inkscape:pagecheckerboard="0"
     inkscape:deskcolor="#d1d1d1"
     inkscape:zoom="12.96875"
     inkscape:cx="14.419277"
     inkscape:cy="14.99759"
     inkscape:window-width="1366"
     inkscape:window-height="697"
     inkscape:window-x="-8"
     inkscape:window-y="-8"
     inkscape:window-maximized="1"
     inkscape:current-layer="Layer_1" />
  <g
     id="g1">
    <path
       d="m 0.45883674,0.21876272 c -0.011993,0 -0.0239874,0.00458 -0.0331442,0.0137366 -0.0183137,0.0182824 -0.0183137,0.0480031 0,0.0662856 l 0.0720681,0.0720652 c 0.002938,0.002969 0.002938,0.008127 0,0.0110643 l -0.0693471,0.0693471 c -0.0183137,0.0182824 -0.0183137,0.0480031 0,0.0662856 0.009157,0.009157 0.0211578,0.0137195 0.0331585,0.0137195 v 3.125e-5 c 0.0120008,0 0.0240017,-0.004563 0.0331585,-0.0137195 l 0.0693471,-0.069347 c 0.0395963,-0.0395963 0.0395963,-0.10400787 0,-0.14363542 l -0.0720995,-0.0720966 c -0.009157,-0.009157 -0.0211484,-0.0137366 -0.0331414,-0.0137366 z"
       style="fill:#ffa366;fill-opacity:1;stroke-width:0.031252"
       id="path4"
       inkscape:label="path4" />
    <path
       d="m 0.29117007,0.21876272 c -0.011993,0 -0.0239874,0.00458 -0.0331442,0.0137366 l -0.0720967,0.0720967 c -0.039565,0.0395963 -0.039565,0.10400764 0,0.14360392 l 0.0693471,0.0693471 c 0.009157,0.009157 0.0211577,0.0137195 0.0331585,0.0137195 0.0120008,0 0.0240017,-0.004563 0.0331585,-0.0137195 h -6.25e-5 c 0.0183137,-0.0182824 0.0183137,-0.0480031 0,-0.0662856 l -0.069316,-0.0693156 c -0.002938,-0.002969 -0.002938,-0.008127 0,-0.0110643 l 0.0720967,-0.0720967 c 0.0183137,-0.0182824 0.0183137,-0.0480031 0,-0.0662856 -0.009157,-0.009157 -0.0211484,-0.0137366 -0.0331414,-0.0137365 z"
       style="fill:#ffffff;fill-opacity:1;stroke-width:0.031252"
       id="path3" />
    <path
       d="M 0.37100631,3.7823469e-5 C 0.35072082,3.2547782e-4 0.33020798,0.00225377 0.30959338,0.00585751 0.14414529,0.03498438 0.0175125,0.17243113 0.00169899,0.34012935 -0.00808289,0.44360473 0.0246062,0.54245668 0.09376688,0.61843029 0.1698655,0.70206065 0.28412227,0.75 0.40728641,0.75 h 0.17082256 c 0.0947873,0 0.17188697,-0.0770997 0.17188697,-0.17188697 V 0.38516474 c 0,-0.11603867 -0.0505663,-0.22504566 -0.13869697,-0.29905039 C 0.54251138,0.02837237 0.45891,-0.00120868 0.37100631,3.7823469e-5 Z M 0.37591031,0.09380241 c 0.0640979,0 0.12494328,0.02203176 0.17507149,0.06412821 h 3.125e-5 c 0.0668795,0.0561286 0.1052268,0.13894722 0.1052268,0.22723412 V 0.5781445 c 0,0.0430653 -0.0350657,0.078131 -0.078131,0.078131 H 0.40728641 c -0.0968187,0 -0.18579374,-0.0367828 -0.24417248,-0.10091187 -0.0511595,-0.0562224 -0.07534717,-0.1295416 -0.0680967,-0.20639027 0.0117195,-0.12382044 0.10875727,-0.2292631 0.23079631,-0.25073322 0.0168448,-0.0029689 0.0335646,-0.0044377 0.0500968,-0.0044377 z"
       style="fill:#ffffff;stroke-width:0.031252"
       id="path2" />
  </g>
</svg>
