<?xml version="1.0" encoding="UTF-8" standalone="no"?>
<!-- Created with Inkscape (http://www.inkscape.org/) -->

<svg
   width="48"
   height="48"
   viewBox="0 0 48 48"
   version="1.1"
   id="svg1"
   xml:space="preserve"
   inkscape:version="1.4 (86a8ad7, 2024-10-11)"
   sodipodi:docname="icon.svg"
   xmlns:inkscape="http://www.inkscape.org/namespaces/inkscape"
   xmlns:sodipodi="http://sodipodi.sourceforge.net/DTD/sodipodi-0.dtd"
   xmlns="http://www.w3.org/2000/svg"
   xmlns:svg="http://www.w3.org/2000/svg"><sodipodi:namedview
     id="namedview1"
     pagecolor="#ffffff"
     bordercolor="#000000"
     borderopacity="0.25"
     inkscape:showpageshadow="2"
     inkscape:pageopacity="0.0"
     inkscape:pagecheckerboard="0"
     inkscape:deskcolor="#d1d1d1"
     inkscape:document-units="px"
     inkscape:zoom="4.3229167"
     inkscape:cx="10.640964"
     inkscape:cy="21.860241"
     inkscape:window-width="1366"
     inkscape:window-height="697"
     inkscape:window-x="-8"
     inkscape:window-y="-8"
     inkscape:window-maximized="1"
     inkscape:current-layer="layer1" /><defs
     id="defs1" /><g
     inkscape:label="Layer 1"
     inkscape:groupmode="layer"
     id="layer1"><g
       id="g2"
       style="display:none"
       sodipodi:insensitive="true"><path
         d="M 55.846806,-6.0421914 44.063349,-14.774948 c -1.624647,-1.204031 -3.925029,-0.861971 -5.12906,0.762677 l -6.54957,8.8375956 c -1.204026,1.62464 -0.861966,3.925021 0.762682,5.12905303 l 2.152686,1.59536197 1.037741,4.369939 c 0.09576,0.458897 0.357022,0.845346 0.707577,1.105143 0.343927,0.254886 0.77462,0.388093 1.216228,0.347977 l 4.568825,-0.242278 2.1004,1.556613 c 1.624647,1.204031 3.925029,0.861971 5.129054,-0.762668 l 6.54957,-8.83759697 C 57.813514,-2.5377784 57.471454,-4.8381604 55.846806,-6.0421914 Z m -15.203767,0.952108 0.492497,3.312087 c 0.07455,0.50137 -0.27039,0.96681403 -0.771759,1.04136603 -0.250042,0.03718 -0.492066,-0.03038 -0.680596,-0.170095 C 39.494643,-1.0464514 39.359573,-1.2583244 39.32241,-1.5083904 l -0.492497,-3.312086 c -0.223083,-1.500249 0.815572,-2.901747 2.315821,-3.12483 l 3.312087,-0.492498 c 0.50137,-0.07455 0.966814,0.270389 1.041366,0.771759 0.07455,0.50137 -0.27039,0.966814 -0.77176,1.041367 l -3.312087,0.492498 c -0.500624,0.07509 -0.846114,0.541275 -0.772301,1.042097 z m 7.202701,6.951264 -3.312088,0.492497 c -0.250041,0.03718 -0.492065,-0.03037 -0.680604,-0.170101 -0.18853,-0.13972 -0.323599,-0.351594 -0.360762,-0.601659 -0.07455,-0.501369 0.270389,-0.96681297 0.771759,-1.04136597 l 3.312088,-0.492497 c 0.500631,-0.0751 0.846121,-0.541283 0.772302,-1.042098 L 47.855937,-4.3061304 c -0.07455,-0.50137 0.27039,-0.966814 0.77176,-1.041367 0.501369,-0.07455 0.966814,0.27039 1.041366,0.77176 l 0.492498,3.312088 c 0.223082,1.50024903 -0.815573,2.901747 -2.315821,3.12483 z"
         id="path1-8"
         style="stroke-width:0.916665" /><rect
         style="fill:none;stroke:#000000;stroke-width:7;stroke-dasharray:none"
         id="rect1"
         width="32.706203"
         height="49.361313"
         x="1.8032799"
         y="7.836689"
         rx="6.9993167" /><path
         d="m 27.003483,30.858423 c -5.35,0 -10.839,1.131 -10.994,9.111 0.047,2.322 0.562,5.382 1.607,6.983 0.667,1.021 1.849,1.567 3.089,1.426 1.23,-0.14 2.254,-0.932 2.671,-2.067 0.6,-1.639 1.757,-2.41 3.625,-2.424 1.845,0.015 3.02,0.829 3.643,2.472 0.804,2.121 2.912,2.077 3.041,2.077 1.09,0 2.099,-0.53 2.696,-1.438 1.06,-1.607 1.581,-4.688 1.628,-7.067 -0.152,-7.984 -6.09,-9.072 -11.006,-9.072 z m -4.788,9.753 -0.849,-0.849 -0.849,0.849 c -0.39,0.39 -1.023,0.391 -1.414,0 -0.391,-0.391 -0.39,-1.024 0,-1.414 l 0.849,-0.849 -0.849,-0.849 c -0.391,-0.391 -0.39,-1.024 0,-1.414 0.39,-0.39 1.023,-0.391 1.414,0 l 0.849,0.849 0.849,-0.849 c 0.39,-0.39 1.023,-0.391 1.414,0 0.391,0.391 0.39,1.024 0,1.414 l -0.849,0.849 0.849,0.849 c 0.391,0.391 0.39,1.024 0,1.414 -0.39,0.39 -1.023,0.391 -1.414,0 z m 9.239,-6.668 c 0.831,0 1.505,0.674 1.505,1.505 0,0.831 -0.674,1.505 -1.505,1.505 -0.831,0 -1.505,-0.674 -1.505,-1.505 0,-0.831 0.674,-1.505 1.505,-1.505 z m -2.895,5.909 c -0.831,0 -1.505,-0.674 -1.505,-1.505 0,-0.831 0.674,-1.505 1.505,-1.505 0.831,0 1.505,0.674 1.505,1.505 0,0.831 -0.674,1.505 -1.505,1.505 z m 2.895,2.9 c -0.831,0 -1.505,-0.674 -1.505,-1.505 0,-0.831 0.674,-1.505 1.505,-1.505 0.831,0 1.505,0.674 1.505,1.505 0,0.831 -0.674,1.505 -1.505,1.505 z m 2.895,-2.9 c -0.831,0 -1.505,-0.674 -1.505,-1.505 0,-0.831 0.674,-1.505 1.505,-1.505 0.831,0 1.505,0.674 1.505,1.505 0,0.831 -0.674,1.505 -1.505,1.505 z"
         id="path2"
         style="fill:#00ff00" /><rect
         style="fill:#800000;stroke:none;stroke-width:7;stroke-dasharray:none"
         id="rect2"
         width="21.018965"
         height="2.4535766"
         x="24"
         y="24"
         rx="0"
         ry="0" /></g><g
       id="g4"
       transform="matrix(1.628181,0,0,1.628181,-13.309187,-14.673685)"
       style="fill:#ffffff"><path
         d="m 19.549,20.915 c -5.35,0 -10.839,1.131 -10.994,9.111 0.047,2.322 0.562,5.382 1.607,6.983 0.667,1.021 1.849,1.567 3.089,1.426 1.23,-0.14 2.254,-0.932 2.671,-2.067 0.6,-1.639 1.757,-2.41 3.625,-2.424 1.845,0.015 3.02,0.829 3.643,2.472 0.804,2.121 2.912,2.077 3.041,2.077 1.09,0 2.099,-0.53 2.696,-1.438 1.06,-1.607 1.581,-4.688 1.628,-7.067 -0.152,-7.984 -6.09,-9.072 -11.006,-9.072 z m -4.788,9.753 -0.849,-0.849 -0.849,0.849 c -0.39,0.39 -1.023,0.391 -1.414,0 -0.391,-0.391 -0.39,-1.024 0,-1.414 l 0.849,-0.849 -0.849,-0.849 c -0.391,-0.391 -0.39,-1.024 0,-1.414 0.39,-0.39 1.023,-0.391 1.414,0 l 0.849,0.849 0.849,-0.849 c 0.39,-0.39 1.023,-0.391 1.414,0 0.391,0.391 0.39,1.024 0,1.414 l -0.849,0.849 0.849,0.849 c 0.391,0.391 0.39,1.024 0,1.414 -0.39,0.39 -1.023,0.391 -1.414,0 z M 24,24 c 0.831,0 1.505,0.674 1.505,1.505 0,0.831 -0.674,1.505 -1.505,1.505 -0.831,0 -1.505,-0.674 -1.505,-1.505 C 22.495,24.674 23.169,24 24,24 Z m -2.895,5.909 c -0.831,0 -1.505,-0.674 -1.505,-1.505 0,-0.831 0.674,-1.505 1.505,-1.505 0.831,0 1.505,0.674 1.505,1.505 0,0.831 -0.674,1.505 -1.505,1.505 z m 2.895,2.9 c -0.831,0 -1.505,-0.674 -1.505,-1.505 0,-0.831 0.674,-1.505 1.505,-1.505 0.831,0 1.505,0.674 1.505,1.505 0,0.831 -0.674,1.505 -1.505,1.505 z m 2.895,-2.9 c -0.831,0 -1.505,-0.674 -1.505,-1.505 0,-0.831 0.674,-1.505 1.505,-1.505 0.831,0 1.505,0.674 1.505,1.505 0,0.831 -0.674,1.505 -1.505,1.505 z"
         id="path1"
         style="fill:#ffffff" /><g
         id="g3"
         transform="matrix(0.43682037,0.2844082,-0.2844082,0.43682037,28.506867,7.3144146)"
         style="fill:#ffffff"><path
           d="M 21.796,2.706 C 21.687,2.385 21.422,2.142 21.094,2.06 20.922,2.017 16.834,1.001 12,1.001 7.166,1.001 3.079,2.016 2.907,2.059 2.577,2.142 2.312,2.387 2.203,2.708 2.154,2.854 1,6.32 1,10.94 c 0,4.659 1.155,8.092 1.204,8.235 0.109,0.321 0.374,0.564 0.702,0.646 0.109,0.027 2.609,0.65 6.006,0.928 0.112,0.125 0.229,0.251 0.353,0.375 1.048,1.061 2.193,1.716 2.242,1.744 0.153,0.087 0.564,0.235 0.97,0.009 0.046,-0.026 1.146,-0.627 2.258,-1.752 0.125,-0.126 0.243,-0.252 0.355,-0.376 3.391,-0.278 5.895,-0.9 6.003,-0.928 0.33,-0.083 0.596,-0.328 0.704,-0.649 C 21.846,19.026 23,15.559 23,10.94 23,6.281 21.845,2.849 21.796,2.705 Z m -1.738,15.302 c -0.943,0.203 -3.02,0.6 -5.527,0.78 -0.271,0.02 -0.522,0.149 -0.696,0.358 -0.154,0.185 -1.206,1.315 -1.83,1.669 C 11.216,20.293 10.329,19.337 10.174,19.15 10,18.938 9.747,18.807 9.473,18.788 6.966,18.608 4.884,18.21 3.939,18.007 3.636,16.924 3,14.256 3,10.941 3,7.665 3.639,4.97 3.942,3.875 5.19,3.607 8.414,3 12,3 15.586,3 18.814,3.607 20.061,3.875 20.365,4.958 21,7.625 21,10.94 c 0,3.276 -0.639,5.972 -0.942,7.067 z"
           id="path1-14"
           style="fill:#ffffff" /><path
           d="M 10.2,13.247 C 8.752,12.34 7.789,11.189 7.322,10.545 7.786,9.904 8.742,8.761 10.2,7.848 10.668,7.555 10.81,6.938 10.517,6.47 10.224,6.002 9.606,5.86 9.139,6.153 6.576,7.758 5.306,9.961 5.253,10.054 c -0.174,0.306 -0.174,0.681 0,0.987 0.053,0.093 1.322,2.296 3.886,3.901 0.165,0.103 0.83,0.43 1.378,-0.317 0.327,-0.445 0.151,-1.085 -0.317,-1.378 z"
           id="path2-2"
           style="fill:#ffffff" /><path
           d="m 14.869,6.152 c -0.468,-0.293 -1.085,-0.151 -1.378,0.317 -0.293,0.468 -0.151,1.085 0.317,1.378 1.458,0.913 2.414,2.056 2.878,2.697 -0.468,0.644 -1.431,1.795 -2.878,2.702 -0.468,0.293 -0.644,0.933 -0.317,1.378 0.549,0.747 1.213,0.42 1.378,0.317 2.563,-1.605 3.833,-3.809 3.886,-3.901 0.174,-0.306 0.174,-0.681 0,-0.987 C 18.702,9.96 17.433,7.758 14.869,6.152 Z"
           id="path3-3"
           style="fill:#ffffff" /></g></g></g></svg>
