<?xml version="1.0" encoding="UTF-8" standalone="no"?>
<!-- Uploaded to: SVG Repo, www.svgrepo.com, Generator: SVG Repo Mixer Tools -->

<svg
   width="16"
   height="16"
   viewBox="0 0 0.48 0.48"
   fill="none"
   version="1.1"
   id="svg1"
   sodipodi:docname="web.svg"
   inkscape:version="1.4.2 (ebf0e94, 2025-05-08)"
   xmlns:inkscape="http://www.inkscape.org/namespaces/inkscape"
   xmlns:sodipodi="http://sodipodi.sourceforge.net/DTD/sodipodi-0.dtd"
   xmlns="http://www.w3.org/2000/svg"
   xmlns:svg="http://www.w3.org/2000/svg">
  <defs
     id="defs1" />
  <sodipodi:namedview
     id="namedview1"
     pagecolor="#ffffff"
     bordercolor="#000000"
     borderopacity="0.25"
     inkscape:showpageshadow="2"
     inkscape:pageopacity="0.0"
     inkscape:pagecheckerboard="0"
     inkscape:deskcolor="#d1d1d1"
     inkscape:zoom="0.61875"
     inkscape:cx="298.9899"
     inkscape:cy="301.41414"
     inkscape:window-width="1366"
     inkscape:window-height="697"
     inkscape:window-x="-8"
     inkscape:window-y="-8"
     inkscape:window-maximized="1"
     inkscape:current-layer="svg1" />
  <path
     fill-rule="evenodd"
     clip-rule="evenodd"
     d="m 0.1823531,0.411912 c 0.00459,0.0086 0.00918,0.016349 0.013575,0.023216 -0.046663,-0.010493 -0.087153,-0.037296 -0.1151712,-0.074107 0.018492,-0.010413 0.042175,-0.021208 0.070647,-0.029107 0.00809,0.031739 0.019509,0.058547 0.030949,0.079997 z M 0.217648,0.393088 C 0.2077093,0.374456 0.1977493,0.3511867 0.1905733,0.323616 0.2060213,0.3213227 0.222512,0.32 0.2400027,0.32 c 0.017488,0 0.033979,0.00132 0.049424,0.00361 -0.00718,0.027573 -0.017136,0.050843 -0.027075,0.069475 -0.00797,0.014944 -0.015906,0.026872 -0.022352,0.0356 C 0.2335497,0.419955 0.2256157,0.408029 0.217648,0.393088 Z M 0.18,0.24 c 0,0.015576 0.00105,0.03036 0.0029,0.044317 C 0.2007173,0.281584 0.2197707,0.28 0.2400027,0.28 c 0.020229,0 0.039283,0.00158 0.057101,0.00432 C 0.298952,0.2703573 0.3,0.255576 0.3,0.24 0.3,0.224424 0.298952,0.2096427 0.297104,0.1956827 0.2792853,0.198416 0.260232,0.2 0.2400027,0.2 0.2197707,0.2 0.2007173,0.198416 0.182896,0.1956827 0.181048,0.20964 0.18,0.224424 0.18,0.24 Z M 0.14365,0.187435 C 0.1413272,0.2039413 0.14,0.2214773 0.14,0.24 0.14,0.258523 0.14133,0.276059 0.14365,0.292565 0.10969,0.301685 0.081568,0.314538 0.05982,0.326909 0.0471195,0.3006293 0.04,0.2711467 0.04,0.24 0.04,0.208853 0.04712,0.179372 0.05982,0.15309 0.081566,0.165459 0.109688,0.178316 0.143651,0.187435 Z M 0.190573,0.156386 c 0.015448,0.00229 0.031939,0.00361 0.049429,0.00361 0.017488,0 0.033979,-0.00132 0.049424,-0.00361 C 0.282246,0.128815 0.27229,0.105545 0.262351,0.086912 0.254381,0.071972 0.246444,0.060042 0.239999,0.051315 0.233549,0.060045 0.225615,0.071972 0.217647,0.086911 0.207707,0.105544 0.197748,0.128814 0.190572,0.156385 Z M 0.336349,0.187438 C 0.338672,0.203944 0.34,0.22148 0.34,0.24 0.34,0.258523 0.33867,0.276056 0.33635,0.292563 0.37031,0.301683 0.398433,0.314539 0.420182,0.32691 0.43288,0.3006267 0.44,0.271144 0.44,0.24 0.44,0.208856 0.43288,0.179372 0.420181,0.153091 0.398434,0.16546 0.370312,0.178317 0.336349,0.187438 Z M 0.399242,0.118982 C 0.380749,0.129396 0.357066,0.140189 0.328597,0.148089 0.320507,0.116349 0.309088,0.08954 0.297648,0.06809 0.293058,0.05949 0.288468,0.051742 0.284072,0.044873 0.330736,0.055367 0.371227,0.082171 0.399242,0.118982 Z M 0.151404,0.148087 C 0.122934,0.140187 0.099251,0.129394 0.080757,0.11898 0.108775,0.08217 0.149265,0.055367 0.1959252,0.044872 c -0.00439,0.00687 -0.00898,0.014615 -0.013572,0.023216 -0.01144,0.02145 -0.022856,0.048259 -0.0309492,0.079999 z m 0.1771933,0.183825 c -0.00809,0.031741 -0.019509,0.058549 -0.030949,0.08 -0.00459,0.0086 -0.00918,0.016349 -0.013576,0.023216 C 0.3307363,0.424635 0.3712273,0.397829 0.3992456,0.361019 0.380752,0.3506053 0.3570693,0.3398133 0.3285973,0.331912 Z M 0.24,0.48 C 0.3725493,0.48 0.48,0.3725493 0.48,0.24 0.48,0.1074517 0.3725493,0 0.24,0 0.1074517,0 0,0.1074517 0,0.24 0,0.3725493 0.1074517,0.48 0.24,0.48 Z"
     fill="#080341"
     id="path1"
     style="fill:#ffffff;stroke-width:0.0266667" />
</svg>
