<?xml version="1.0" encoding="UTF-8" standalone="no"?>
<!DOCTYPE svg PUBLIC "-//W3C//DTD SVG 1.1//EN" "http://www.w3.org/Graphics/SVG/1.1/DTD/svg11.dtd">
<svg width="100%" height="100%" viewBox="0 0 24 25" version="1.1" xmlns="http://www.w3.org/2000/svg" xmlns:xlink="http://www.w3.org/1999/xlink" xml:space="preserve" xmlns:serif="http://www.serif.com/" style="fill-rule:evenodd;clip-rule:evenodd;stroke-linejoin:round;stroke-miterlimit:2;">
    <g id="g1" transform="matrix(21.333333,0,0,21.333333,0,0)">
        <g id="path4" transform="matrix(0.913043,0,0,0.913043,0.070313,0.070313)">
            <path d="M0.66,0.314C0.642,0.314 0.625,0.321 0.612,0.334C0.586,0.361 0.586,0.403 0.612,0.43L0.716,0.533C0.72,0.537 0.72,0.545 0.716,0.549L0.616,0.649C0.59,0.675 0.59,0.718 0.616,0.744C0.629,0.757 0.646,0.764 0.664,0.764L0.664,0.764C0.681,0.764 0.698,0.757 0.711,0.744L0.811,0.644C0.868,0.587 0.868,0.495 0.811,0.438L0.707,0.334C0.694,0.321 0.677,0.314 0.66,0.314Z" style="fill:rgb(96,165,250);fill-rule:nonzero;"/>
        </g>
        <g id="path3" transform="matrix(0.913043,0,0,0.913043,0.070313,0.070313)">
            <path d="M0.419,0.314C0.401,0.314 0.384,0.321 0.371,0.334L0.267,0.438C0.21,0.495 0.21,0.587 0.267,0.644L0.367,0.744C0.38,0.757 0.397,0.764 0.415,0.764C0.432,0.764 0.449,0.757 0.462,0.744L0.462,0.744C0.489,0.718 0.489,0.675 0.462,0.649L0.363,0.549C0.358,0.545 0.358,0.537 0.363,0.533L0.466,0.43C0.493,0.403 0.493,0.361 0.466,0.334C0.453,0.321 0.436,0.314 0.419,0.314Z" style="fill:white;fill-rule:nonzero;"/>
        </g>
        <g id="path2" transform="matrix(0.913043,0,0,0.913043,0.070313,0.070313)">
            <path d="M0.533,0C0.504,0 0.475,0.003 0.445,0.008C0.207,0.05 0.025,0.248 0.002,0.489C-0.012,0.638 0.035,0.78 0.135,0.889C0.244,1.009 0.408,1.078 0.585,1.078L0.831,1.078C0.967,1.078 1.078,0.967 1.078,0.831L1.078,0.554C1.078,0.387 1.005,0.23 0.879,0.124C0.78,0.041 0.66,-0.002 0.533,0ZM0.54,0.135C0.633,0.135 0.72,0.167 0.792,0.227L0.792,0.227C0.888,0.308 0.943,0.427 0.943,0.554L0.943,0.831C0.943,0.893 0.893,0.943 0.831,0.943L0.585,0.943C0.446,0.943 0.318,0.891 0.234,0.798C0.161,0.718 0.126,0.612 0.137,0.502C0.153,0.324 0.293,0.172 0.468,0.141C0.493,0.137 0.517,0.135 0.54,0.135Z" style="fill:white;fill-rule:nonzero;"/>
        </g>
    </g>
</svg>
